<?xml version="1.0" standalone="no"?>
<!DOCTYPE svg PUBLIC "-//W3C//DTD SVG 20010904//EN"
 "http://www.w3.org/TR/2001/REC-SVG-20010904/DTD/svg10.dtd">
<svg version="1.0" xmlns="http://www.w3.org/2000/svg"
 width="512.000000pt" height="512.000000pt" viewBox="0 0 512.000000 512.000000"
 preserveAspectRatio="xMidYMid meet">
<metadata>
Created by potrace 1.14, written by Peter Selinger 2001-2017
</metadata>
<g transform="translate(0.000000,512.000000) scale(0.100000,-0.100000)"
fill="#000000" stroke="none">
<path d="M2284 4937 c1 -99 -2 -181 -7 -184 -4 -2 -5 -9 -2 -14 10 -16 13 -89
3 -89 -5 0 -6 -4 -3 -10 3 -5 8 -28 10 -50 3 -30 1 -39 -8 -33 -9 5 -9 3 -2
-8 23 -32 10 -48 -77 -93 -89 -45 -136 -76 -173 -111 -12 -11 -37 -34 -56 -50
-19 -17 -48 -48 -64 -70 -17 -22 -32 -42 -35 -45 -12 -11 -44 -66 -43 -72 2
-3 -4 -12 -12 -18 -8 -7 -15 -17 -15 -22 0 -6 -6 -24 -14 -41 -53 -123 -64
-180 -69 -334 -1 -40 0 -73 3 -73 3 0 5 -12 4 -27 0 -16 3 -46 8 -68 6 -22 11
-49 14 -60 2 -11 8 -29 13 -40 5 -11 17 -40 26 -65 29 -80 94 -177 167 -251
15 -15 24 -30 21 -33 -4 -3 -2 -6 4 -6 5 0 21 -9 34 -21 37 -33 137 -99 148
-99 6 0 11 -5 11 -11 0 -5 4 -7 10 -4 6 3 10 1 10 -6 0 -7 3 -9 7 -6 3 4 11 3
17 -2 22 -17 133 -51 211 -64 76 -13 205 -14 270 -3 57 10 90 17 110 23 11 4
22 7 25 8 13 2 106 40 110 45 3 3 23 14 45 25 22 11 42 22 45 25 3 3 23 18 45
34 118 87 246 259 284 382 7 21 15 46 17 54 3 8 5 16 5 17 0 2 6 20 13 40 7
21 12 55 11 76 -1 21 1 40 5 42 7 4 4 139 -4 188 -12 70 -18 93 -37 151 -18
54 -71 163 -91 191 -120 160 -219 244 -365 311 -36 16 -63 35 -64 44 0 8 -1
147 -2 309 l-2 294 -281 1 -281 1 1 -178z m397 -986 c60 -28 116 -84 142 -141
28 -62 28 -169 0 -230 -29 -61 -106 -140 -137 -140 -8 0 -18 -5 -21 -10 -4 -6
-10 -8 -15 -5 -5 3 -11 1 -15 -4 -11 -18 -137 -6 -188 18 -75 34 -157 137
-157 195 0 9 -5 26 -10 37 -6 10 -7 19 -3 19 5 0 9 17 10 38 2 35 19 85 46
127 67 107 230 151 348 96z"/>
<path d="M1771 2853 c-5 -10 -10 -22 -11 -28 -3 -13 -9 -29 -31 -87 -10 -27
-15 -48 -11 -48 4 0 3 -4 -3 -8 -8 -6 -72 -176 -78 -207 -1 -5 -4 -12 -7 -15
-6 -6 -50 -128 -55 -154 -3 -10 -10 -24 -16 -32 -7 -8 -9 -17 -6 -21 4 -3 1
-15 -5 -27 -7 -11 -11 -24 -10 -28 1 -5 -3 -8 -10 -8 -6 0 -9 -2 -6 -5 3 -3
-8 -41 -24 -83 -16 -42 -31 -81 -32 -87 -2 -5 -6 -22 -11 -37 -4 -16 -11 -28
-17 -28 -5 0 -7 -4 -4 -8 4 -7 -62 -198 -90 -262 -4 -8 -6 -21 -5 -27 1 -7 -4
-13 -10 -13 -7 0 -10 -3 -6 -6 3 -4 -1 -23 -9 -43 -9 -20 -17 -43 -19 -51 -2
-8 -4 -16 -5 -17 -2 -2 -3 -6 -5 -10 -1 -5 -4 -15 -8 -23 -3 -8 -16 -44 -28
-80 -12 -36 -25 -69 -29 -75 -4 -5 -11 -23 -15 -40 -10 -37 -9 -34 -24 -70 -6
-16 -15 -41 -20 -55 -5 -14 -13 -34 -17 -45 -4 -11 -8 -23 -9 -27 -2 -5 -3 -9
-5 -10 -1 -2 -3 -10 -5 -18 -2 -8 -18 -51 -34 -95 -17 -44 -31 -86 -31 -92 0
-7 -4 -13 -8 -13 -4 0 -8 -8 -9 -17 -1 -10 -18 -60 -38 -112 -38 -100 -39
-116 -19 -271 4 -30 7 -70 8 -87 0 -18 3 -33 6 -33 3 0 7 -17 8 -37 1 -21 3
-58 6 -83 18 -169 21 -198 25 -219 1 -2 14 9 30 25 15 16 83 81 151 144 67 63
159 151 204 196 81 80 81 81 122 200 47 132 101 281 111 304 4 8 8 20 8 25 1
6 6 19 10 30 32 78 62 165 58 165 -3 0 0 6 6 13 6 8 8 17 4 20 -3 4 -1 7 6 7
7 0 10 4 6 9 -3 5 -1 12 5 16 5 3 10 12 10 20 0 8 5 26 12 42 6 15 12 33 14
38 1 6 6 21 12 35 5 14 11 30 12 35 1 6 6 18 12 28 5 10 11 26 13 35 7 39 11
47 23 60 6 7 12 22 12 33 0 11 4 27 9 37 5 9 18 42 29 72 11 30 24 64 28 75
10 26 9 25 19 60 4 17 11 32 14 35 3 3 22 52 43 110 50 143 107 302 115 320 4
8 7 20 8 25 0 6 7 20 13 33 7 12 10 27 7 32 -3 6 -2 10 3 10 5 0 12 10 15 23
3 12 13 42 22 67 24 69 26 75 26 77 0 2 8 23 19 48 11 25 16 45 12 45 -4 0 -1
4 6 8 7 5 10 16 6 25 -3 9 -10 14 -15 11 -5 -3 -9 -1 -9 3 0 5 -8 10 -17 11
-31 3 -47 8 -68 18 -11 6 -46 21 -77 34 -32 12 -58 26 -58 29 0 4 -6 8 -12 8
-7 0 -44 21 -83 47 -69 47 -89 63 -123 99 -9 9 -20 17 -24 17 -4 0 -12 -8 -17
-17z"/>
<path d="M3310 2844 c-19 -16 -36 -32 -38 -36 -2 -5 -11 -8 -19 -8 -9 0 -13
-3 -10 -7 7 -6 -27 -30 -108 -74 -22 -12 -43 -27 -47 -33 -4 -6 -8 -8 -8 -3 0
4 -18 -2 -39 -13 -38 -19 -110 -47 -141 -55 -8 -2 -16 -4 -17 -5 -2 -2 -9 -3
-15 -4 -16 -1 -23 -36 -8 -36 6 0 9 -3 7 -7 -3 -5 0 -19 6 -33 5 -14 11 -29
13 -35 1 -5 15 -41 29 -80 15 -38 28 -74 29 -80 2 -5 8 -21 13 -35 6 -14 18
-45 26 -70 36 -105 76 -209 88 -231 7 -13 11 -25 10 -27 -2 -2 3 -22 12 -45
55 -152 99 -274 104 -287 3 -8 7 -19 9 -25 6 -22 47 -132 59 -160 19 -45 39
-109 37 -117 -1 -5 3 -8 9 -8 6 0 9 -7 6 -15 -4 -8 -2 -17 3 -20 5 -3 14 -23
20 -45 6 -21 18 -56 27 -77 9 -21 18 -44 19 -51 1 -8 6 -21 10 -30 4 -9 8 -19
9 -22 1 -3 4 -12 8 -20 23 -61 57 -157 57 -161 0 -4 7 -24 16 -45 9 -22 16
-40 16 -41 0 -1 17 -49 39 -105 21 -57 39 -107 39 -111 0 -5 6 -23 14 -40 7
-18 19 -48 27 -67 13 -36 38 -62 274 -285 76 -72 149 -142 163 -158 28 -30 35
-29 38 11 1 15 4 47 8 72 4 25 8 61 11 80 13 122 17 159 21 190 7 51 25 221
26 240 2 20 -16 70 -25 70 -6 0 -8 3 -5 6 4 3 -7 42 -24 87 -16 45 -33 93 -38
107 -5 14 -22 63 -40 110 -17 47 -43 117 -56 155 -14 39 -29 79 -34 90 -21 51
-110 302 -110 313 0 7 -5 12 -12 12 -6 0 -9 3 -5 6 5 6 0 24 -29 99 -4 11 -8
22 -8 25 -1 6 -13 37 -47 125 -13 33 -24 65 -26 70 -3 13 -71 203 -83 230 -7
19 -19 50 -70 190 -11 30 -29 79 -41 109 -11 30 -22 60 -23 67 -1 8 -10 31
-19 53 -9 21 -17 41 -17 45 0 3 -18 55 -41 114 -22 59 -41 116 -42 127 -1 10
-4 17 -8 14 -4 -2 -9 1 -11 7 -2 7 -18 -1 -38 -17z"/>
</g>
</svg>
